<svg xmlns="http://www.w3.org/2000/svg" viewBox="0 0 240 60" width="240" height="60">
  <defs>
    <linearGradient id="textGrad" x1="0%" y1="0%" x2="100%" y2="0%">
      <stop offset="0%" stop-color="#a78bfa"/>
      <stop offset="100%" stop-color="#f59e0b"/>
    </linearGradient>
  </defs>
  <!-- Icon mark -->
  <circle cx="30" cy="30" r="26" fill="#1e1b4b"/>
  <circle cx="30" cy="30" r="24" fill="none" stroke="#7c3aed" stroke-width="2"/>
  <g transform="translate(30,30)">
    <path d="M0,-14 L10,-9 L10,3 Q10,12 0,16 Q-10,12 -10,3 L-10,-9 Z"
          fill="none" stroke="#f59e0b" stroke-width="2"/>
    <path d="M-5,1 L-1,5 L7,-4" fill="none" stroke="#f59e0b" stroke-width="2.5" stroke-linecap="round" stroke-linejoin="round"/>
    <g transform="translate(4,-2) rotate(-35)">
      <path d="M0,-12 Q-5,-7 1,9 Q-2,1 0,-12" fill="#f59e0b"/>
      <path d="M0,-12 Q5,-9 1,9 Q3,1 0,-12" fill="#fcd34d" opacity="0.7"/>
    </g>
  </g>
  <!-- Text -->
  <text x="62" y="24" font-family="Georgia, serif" font-size="20" font-weight="bold" fill="white">Author</text>
  <text x="62" y="24" font-family="Georgia, serif" font-size="20" font-weight="bold" fill="none">Author</text>
  <text x="131" y="24" font-family="Georgia, serif" font-size="20" font-weight="bold" fill="#f59e0b">Selo</text>
  <text x="62" y="42" font-family="Arial, sans-serif" font-size="9" fill="#a78bfa" letter-spacing="2">CERTIFICAÇÃO DIGITAL</text>
</svg>
